Simulation
nRows=38
nColumns=15
endheader
time  TH_x TH_y TH_z SC_y  SC_z  SC_x  AC_y  AC_z  AC_x  GH_y  GH_z  GH_yy  EL_x  PS_y
0.0  0.000000  0.000000  0.000000  -38.565286562338706  2.5138200729257436  1.4581419708819632  47.36489179589228  2.3099811362176954  0.8878114324578201  47.318268492608915  9.105714523397438  -23.74684752627068  23.52944525697795  120.000000
0.03099999999999998  0.000000  0.000000  0.000000  -38.37815269867274  2.732004840432282  1.5094685293429226  46.988023382573964  2.5058312095949047  0.8425163565940761  47.00998658740656  9.531979376472613  -23.726419699360143  23.48093652045053  120.000000
0.06199999999999996  0.000000  0.000000  0.000000  -38.1828573861273  2.851437659460557  1.5438464979705666  46.69277357143555  2.5893868297053078  0.8078132138484123  46.771265770300694  9.948130991770569  -23.65408915991925  23.37505369406962  120.000000
0.09299999999999994  0.000000  0.000000  0.000000  -38.007316511751284  2.9216380956769545  1.5665919880214207  46.49179480045088  2.5966385921913093  0.7715325060040866  46.60711473973201  10.380350586038745  -23.52825222053405  23.272717655347908  120.000000
0.12399999999999992  0.000000  0.000000  0.000000  -37.894207062363684  2.9700393674250942  1.585344788193205  46.372145607157584  2.56642787342632  0.7382382044540206  46.49461015032023  10.864116925996512  -23.37705242621713  23.197938623338075  120.000000
0.1549999999999999  0.000000  0.000000  0.000000  -37.869104293490906  3.0109921198724128  1.6111871591731604  46.315345267036896  2.531276873162211  0.720721685395634  46.40085928713067  11.43579971446911  -23.23790257180109  23.153247113087698  120.000000
0.1859999999999999  0.000000  0.000000  0.000000  -37.93684281474493  3.0538613375302006  1.6521765488024336  46.31253404646226  2.515590822435642  0.7304285040338733  46.29419159181079  12.127687676170641  -23.14465982832793  23.136994705910006  120.000000
0.21699999999999986  0.000000  0.000000  0.000000  -38.086552501525965  3.108435012365902  1.712679460540338  46.36179060083805  2.5369895851121873  0.7747181981605008  46.14896709269016  12.962264614729287  -23.121579933303316  23.14913731927795  120.000000
0.24799999999999983  0.000000  0.000000  0.000000  -38.30361016834343  3.1825924885136496  1.795578428575366  46.46016743840774  2.6072614706831274  0.8592290472176255  45.94560956022846  13.95044720798145  -23.18324100005509  23.192387613015388  120.000000
0.2789999999999998  0.000000  0.000000  0.000000  -38.57232985537408  3.282113733260785  1.9026087402182044  46.6029967591525  2.7330342706558293  0.9881688469467144  45.67056562025952  15.093128460051137  -23.335459104392957  23.27050369416801  120.000000
0.3099999999999998  0.000000  0.000000  0.000000  -38.87817416813543  3.4106508017042554  2.0340405142117706  46.7845235316352  2.916820723232762  1.1633825472086978  45.31593342142967  16.383609920145563  -23.576765390366518  23.38647073931621  120.000000
0.34099999999999975  0.000000  0.000000  0.000000  -39.2068614259703  3.571243505199588  2.1884647091343927  46.9972677109307  3.1573481419706777  1.384393540235106  44.87959726871319  17.809409822093286  -23.899187819170503  23.53964723994091  120.000000
0.3719999999999998  0.000000  0.000000  0.000000  -39.544027633329925  3.7666254455829864  2.363063310243341  47.23156920935808  3.450234883070337  1.6488952109587478  44.365078050011526  19.353897029213115  -24.28950797450232  23.72417466720729  120.000000
0.40299999999999975  0.000000  0.000000  0.000000  -39.8746489550825  3.998800425740807  2.55392041319645  47.47536315360284  3.7887181209548384  1.9530392271690233  43.78070750518109  20.997650098550192  -24.731055544955424  23.92795684236643  120.000000
0.4339999999999997  0.000000  0.000000  0.000000  -40.18412011213038  4.268538665373214  2.7567051598354197  47.71595738832624  4.164940356846534  2.2917173530836434  43.1384592854321  22.719611073984638  -25.206123866402173  24.13428225332516  120.000000
0.4649999999999997  0.000000  0.000000  0.000000  -40.46017502543629  4.574729555599406  2.967691969174017  47.94119838080285  4.57130075628431  2.6588973638817692  42.452868703460986  24.49787349937994  -25.697791225880113  24.32459600293708  120.000000
0.49599999999999966  0.000000  0.000000  0.000000  -40.69510852479919  4.914223144292313  3.1849187474494767  48.14127474107423  5.002432531109083  3.0476110023517533  41.74054150880546  26.309958533593058  -26.190916227770217  24.482526223602694  120.000000
0.5269999999999997  0.000000  0.000000  0.000000  -40.88787337924977  5.281984360613924  3.409120433543334  48.30925147204667  5.4564990020313555  3.4500221944057485  41.020033273263294  28.13317079983807  -26.672455041747362  24.597129543433237  120.000000
0.5579999999999996  0.000000  0.000000  0.000000  -41.045120433243525  5.671571756373931  3.6442058307862704  48.44130914596826  5.935781796521051  3.857668346417011  40.31160307607848  29.945091071051696  -27.132097140373816  24.664551475065696  120.000000
0.5889999999999996  0.000000  0.000000  0.000000  -41.18080694841546  6.076049723893281  3.8969886804186924  48.53622618054349  6.445652613235648  4.261974993500485  39.63687237194988  31.724746348840505  -27.563412194356577  24.68710652717335  120.000000
0.6199999999999996  0.000000  0.000000  0.000000  -41.314924820174994  6.4883095343346815  4.176584450737932  48.595131350853116  6.992498571672275  4.655420492739972  39.01756417564924  33.45408132878173  -27.966365145684865  24.670606110386977  120.000000
0.6509999999999996  0.000000  0.000000  0.000000  -41.47192067745609  6.90127919456528  4.4935183907657965  48.62170284751944  7.580923690982248  5.032773097281368  38.473881967294474  35.11963526564137  -28.350221517378262  24.62114074322061  120.000000
0.6819999999999995  0.000000  0.000000  0.000000  -41.67852107003973  7.30798802220662  4.858727653606537  48.623790982373585  8.211389839970076  5.391757256818181  38.02207859270295  36.713854609273476  -28.736108938408158  24.54218967635443  120.000000
0.7129999999999995  0.000000  0.000000  0.000000  -41.9609687932436  7.701424514134296  5.283379832118854  48.61334309321514  8.878861040337423  5.733345047111436  37.672587339440035  38.23476884414218  -29.155713294562965  24.433122165361596  120.000000
0.7439999999999996  0.000000  0.000000  0.000000  -42.34170831620454  8.07513331094124  5.779028017053868  48.605754631556586  9.573312420621773  6.060645118681399  37.42871832427107  39.684042351994535  -29.645147338212773  24.289701926043172  120.000000
0.7749999999999995  0.000000  0.000000  0.000000  -42.83538680427745  8.424250764055898  6.358007048312886  48.61709426813251  10.280937586111799  6.377000542269356  37.28604934685669  41.0637085126618  -30.234845326570824  24.10581248993232  120.000000
0.8059999999999995  0.000000  0.000000  0.000000  -43.446101910770146  8.746090529918915  7.033625315571282  48.66130330525065  10.985390675946185  6.684238199669649  37.23190647312989  42.373420652506184  -30.939182003010934  23.875831006729847  120.000000
0.8369999999999994  0.000000  0.000000  0.000000  -44.1659111592028  9.040610870978062  7.820055285649544  48.7474846619854  11.668204469344778  6.981464388790895  37.245418094346455  43.60886559316474  -31.748699817305557  23.59686881217078  120.000000
0.8679999999999994  0.000000  0.000000  0.000000  -44.976676180279796  9.309954158062057  8.731695132017895  48.879811237346495  12.308760411298454  7.264732811040205  37.2983038989248  44.76230464461662  -32.62899696240572  23.270473538293444  120.000000
0.8989999999999994  0.000000  0.000000  0.000000  -45.854555858062966  9.557347998782319  9.78240246929731  49.05944282037758  12.883822679583472  7.527653050080565  37.357073282006205  45.82455692664366  -33.52775229344446  22.903208972195806  120.000000
0.9299999999999994  0.000000  0.000000  0.000000  -46.776342406159614  9.785454653492485  10.984730380982532  49.28832401336175  13.367861112455477  7.762200311159014  37.38658529064074  46.78770037217512  -34.38789319666911  22.506057407598867  120.000000
0.9609999999999993  0.000000  0.000000  0.000000  -47.724487183502895  9.995537279514009  12.349678952697925  49.571395243518396  13.734101424761018  7.959441569243034  37.35475162092446  47.646810351174494  -35.16145884309655  22.092886387564185  120.000000
0.9919999999999993  0.000000  0.000000  0.000000  -48.69028221111303  10.187169703786171  13.886735250878887  49.9173248330809  13.956330794117967  8.10977895803626  37.237254676893265  48.400784577419834  -35.820488581722884  21.678422433870992  120.000000
1.0229999999999992  0.000000  0.000000  0.000000  -49.67354161115208  10.35851224733017  15.604140277894682  50.33627109315561  14.010491158802965  8.203385217822786  37.02115013572274  49.05207967078175  -36.361874251460605  21.276160708938765  120.000000
1.0539999999999994  0.000000  0.000000  0.000000  -50.67983864630197  10.506948305180348  17.508719407617363  50.83670516535293  13.87611675260318  8.230359074391734  36.70644100744367  49.60605935106091  -36.804956386554004  20.896674440527658  120.000000
1.0849999999999993  0.000000  0.000000  0.000000  -51.715279396995655  10.62975962188686  19.6049659672411  51.42105867590726  13.53735911900198  8.181437445217721  36.30526827211356  50.0700909708969  -37.18304010825104  20.546631845817448  120.000000
1.1159999999999992  0.000000  0.000000  0.000000  -52.781437857588806  10.724922599594967  21.89220275096165  52.08264847813165  12.983731474710119  8.048284017582587  35.83918043832023  50.452478842111745  -37.53221275587737  20.2284577684643  120.000000
1.1469999999999991  0.000000  0.000000  0.000000  -53.87006626159923  10.791520394857567  24.35969161611078  52.80367651112794  12.21135952736994  7.823867302750377  35.335137753644254  50.76116586704639  -37.88110988780883  19.94029373682035  120.000000
